<svg xmlns="http://www.w3.org/2000/svg" width="309" height="86" viewBox="0 0 309 86"><style>.st0{fill:#fff}.st1{fill:#2e2e2e}</style><path class="st0" d="M199.8 60.9c-3.3 0-6.1-1.1-8.2-3.1-2.1-2.1-3.2-4.9-3.2-8.3V49c0-.5 0-.9.1-1.4l-4.4 12.9h-7.7L171.5 46v8.1c0 1.9.3 2.8.5 3.2l.2.4v2.8h-8.4l-.2-.5c-1.1.6-2.4.8-3.8.8-2.4 0-4.4-.7-6-2.1-1.6-1.5-2.5-3.4-2.5-5.6 0-2.5.9-4.5 2.7-6h-2.3v-1c-.5-.1-1-.1-1.4-.1-1.1 0-1.6.3-1.8.5v13.9H133.1V59c-1.5 1.2-3.2 1.8-5.3 1.8-2.4 0-4.4-.7-6-2.1-.2-.1-.3-.3-.4-.4v2.2H101V31h9.3v21.4h9.2c.2-2.1 1.1-3.8 2.6-5.1h-2.3v-2c0-1.5.5-2.9 1.4-4.2.9-1.2 2.1-2.2 3.7-2.9 1.5-.6 3.2-1 5-1 2.8 0 5.1.8 6.9 2.2 1.5 1.3 2.4 2.9 2.7 5v-6.9h8.7v.1c.9-.4 1.7-.5 2.5-.5s1.5.1 2.2.3l1.4.4v1.9c.7-.7 1.6-1.2 2.6-1.7 1.5-.6 3.2-1 5-1 2.8 0 5.1.8 6.9 2.2.3.2.6.5.8.8l-.9-2.7h9.6l2 7.3 2-7.3h9.6l-1.4 4.2c.8-1.2 1.9-2.2 3.2-3 1.7-1 3.6-1.5 5.7-1.5 3.2 0 5.7 1 7.6 3.1.8.9 1.5 1.9 1.9 3.1V29.6h9.1v31h-9.1v-3.8c-1 1.3-2.2 2.3-3.8 3.1-1.7.6-3.4 1-5.3 1z"/><path class="st1" d="M108.3 54.3h11.2v4.2H103V33h5.3v21.3zm24.9 4.3c-.2-.5-.4-1-.5-1.7-1.2 1.4-2.8 2.1-4.8 2.1-1.9 0-3.4-.5-4.6-1.6-1.2-1.1-1.8-2.4-1.8-4.1 0-2 .7-3.6 2.2-4.6 1.5-1.1 3.7-1.6 6.5-1.6h2.3V46c0-.9-.2-1.6-.7-2.1-.4-.5-1.2-.8-2.1-.8-.9 0-1.5.2-2 .6-.5.4-.7 1-.7 1.7h-5.1c0-1.1.3-2.1 1-3.1.7-.9 1.6-1.7 2.9-2.2 1.2-.5 2.6-.8 4.2-.8 2.3 0 4.2.6 5.6 1.8 1.4 1.2 2.1 2.8 2.1 5v8.2c0 1.8.3 3.2.8 4.1v.3l-5.3-.1zM129 55c.8 0 1.4-.2 2.1-.5.6-.3 1.1-.8 1.4-1.3v-3.3h-1.9c-2.5 0-3.9.9-4.1 2.6v.3c0 .6.2 1.2.7 1.6.4.4 1 .6 1.8.6zm23.1-10.7c-.7-.1-1.3-.1-1.8-.1-1.9 0-3.2.7-3.8 2v12.4h-5.1v-19h4.8l.1 2.3c1-1.7 2.4-2.6 4.2-2.6.6 0 1.1.1 1.6.2v4.8zm13 14.3c-.2-.5-.4-1-.5-1.7-1.2 1.4-2.8 2.1-4.8 2.1-1.9 0-3.4-.5-4.6-1.6-1.2-1.1-1.8-2.4-1.8-4.1 0-2 .7-3.6 2.2-4.6 1.5-1.1 3.7-1.6 6.5-1.6h2.3V46c0-.9-.2-1.6-.7-2.1-.4-.5-1.2-.8-2.1-.8-.9 0-1.5.2-2 .6-.5.4-.7 1-.7 1.7h-5.1c0-1.1.3-2.1 1-3.1.7-.9 1.6-1.7 2.9-2.2 1.2-.5 2.6-.8 4.2-.8 2.3 0 4.2.6 5.6 1.8 1.4 1.2 2.1 2.8 2.1 5v8.2c0 1.8.3 3.2.8 4.1v.3l-5.3-.1zm-4.2-3.6c.8 0 1.4-.2 2.1-.5.6-.3 1.1-.8 1.4-1.3v-3.3h-1.9c-2.5 0-3.9.9-4.1 2.6v.3c0 .6.2 1.2.7 1.6.4.4 1 .6 1.8.6zm19.3-2.6 3.5-12.8h5.3l-6.4 19h-4.9l-6.4-19h5.3l3.6 12.8zm19.6 6.5c-2.8 0-5.1-.9-6.8-2.6-1.8-1.7-2.6-4-2.6-6.8V49c0-1.9.4-3.6 1.1-5.1.7-1.5 1.8-2.7 3.1-3.5 1.4-.8 2.9-1.2 4.6-1.2 2.6 0 4.6.8 6.1 2.5 1.5 1.6 2.2 4 2.2 7v2.1h-12.1c.2 1.2.7 2.2 1.5 3 .8.8 1.9 1.1 3.1 1.1 2 0 3.5-.7 4.6-2.1l2.5 2.8c-.8 1.1-1.8 1.9-3.1 2.5s-2.6.8-4.2.8zm-.6-15.6c-1 0-1.8.3-2.5 1s-1 1.7-1.2 2.9h7.1v-.4c0-1.1-.3-2-.9-2.6-.5-.6-1.4-.9-2.5-.9zm16.7 15.3h-5.1v-27h5.1v27z"/><circle class="st0" cx="43" cy="43" r="43"/><linearGradient id="SVGID_1_" gradientUnits="userSpaceOnUse" x1="16.325" y1="321.012" x2="16.325" y2="320.012" gradientTransform="matrix(80 0 0 -80 -1263 25684)"><stop offset="0" stop-color="#9b27ad"/><stop offset="1" stop-color="#f44f4f"/></linearGradient><path d="M43 83C20.9 83 3 65.1 3 43S20.9 3 43 3s40 17.9 40 40-17.9 40-40 40z" fill="url(#SVGID_1_)"/><path class="st0" d="M36.9 48.5c-8.4-8.4-10.4-20.9-5.8-31.2-3 1.4-5.9 3.3-8.4 5.8-10.9 10.9-10.9 28.7 0 39.6 10.9 10.9 28.7 10.9 39.6 0 2.5-2.5 4.4-5.3 5.8-8.4-10.2 4.6-22.7 2.7-31.2-5.8zm5.7 18.4c-6.4 0-12.4-2.5-17-7-9.1-9.1-9.3-23.7-.8-33.1-.5 9 2.7 18 9.3 24.6 6 6 14.1 9.4 22.6 9.4.7 0 1.3 0 2-.1-4.4 4-10.1 6.2-16.1 6.2zM228.6 60.1V31.5h8.7c2.4 0 4.5.5 6.4 1.6 1.9 1.1 3.4 2.7 4.5 4.7 1 2 1.6 4.3 1.6 6.8V47c0 2.5-.5 4.8-1.6 6.8s-2.6 3.6-4.5 4.7-4.1 1.6-6.5 1.6h-8.6zm8.5-4.9c2.3 0 4-.7 5.4-2.2 1.4-1.5 2.1-3.6 2.1-6.2v-2.2c0-2.6-.7-4.6-2-6.1s-3-2.2-5.2-2.2h-3.5v18.9h3.2z"/><path class="st1" d="M242.9 34.4c-1.7-1-3.5-1.4-5.6-1.4h-7.2v25.6h7c2.2 0 4.1-.5 5.8-1.4 1.7-1 3-2.3 3.9-4.1.9-1.8 1.4-3.8 1.4-6.1v-2.4c0-2.3-.5-4.3-1.4-6.1-.9-1.8-2.2-3.1-3.9-4.1zm3.2 12.4c0 3-.8 5.5-2.4 7.3-1.6 1.8-3.8 2.7-6.5 2.7h-4.9v-22h5c2.6 0 4.7.9 6.3 2.7 1.6 1.8 2.4 4.1 2.4 7.1v2.2z"/><path class="st0" d="M259.4 60.4c-2.5 0-4.4-.8-5.7-2.3-1.3-1.5-2-3.5-2-6.2V38h5.1v13.6c0 3.5 1.4 3.9 2.9 3.9 2.9 0 3.8-1.3 4.3-2.5V38h5.1v22h-5v-.7c-1.4.8-3 1.1-4.7 1.1z"/><path class="st1" d="M265.4 53.3c-.8 2.5-2.7 3.8-5.8 3.8-2.9 0-4.4-1.8-4.4-5.4V39.5h-2.1v12.4c0 2.3.6 4.1 1.6 5.2 1.1 1.2 2.6 1.8 4.6 1.8 2.8 0 4.8-.9 6.1-2.8v2.4h2v-19h-2.1v13.8z"/><path class="st0" d="M279.5 60.4c-2.5 0-4.7-.6-6.3-1.9-1.7-1.3-2.6-3.2-2.6-5.2v-1.5h5l.1 1.4c.1.8.3 1.3.9 1.8.7.5 1.7.7 2.9.7 1.1 0 2-.2 2.7-.7.6-.5.7-.9.7-1.2 0-.6-.2-1-.7-1.3-.5-.3-1.4-.8-3.2-1.2-1.8-.4-3.2-.8-4.3-1.4-1.2-.6-2.1-1.3-2.6-2.2-.6-.9-.9-2-.9-3.3 0-2 .8-3.6 2.5-4.9 1.5-1.2 3.4-1.8 5.7-1.8 2.5 0 4.5.6 6.1 1.9 1.6 1.3 2.5 3.1 2.5 5.3v1.5h-5.1v-1.5c0-.7-.3-1.1-.8-1.6-.7-.5-1.5-.8-2.6-.8-1 0-1.9.2-2.4.6-.5.3-.6.7-.6 1.2 0 .6.2.8.4 1 .3.2 1.1.7 3.3 1.2 2 .5 3.5 1 4.5 1.5 1.1.6 2 1.4 2.6 2.3.6.9.9 2.1.9 3.3 0 2.1-.9 3.8-2.5 5.1-1.8 1.1-3.8 1.7-6.2 1.7z"/><path class="st1" d="M283.7 49.3c-.9-.5-2.3-1-4.1-1.4-1.8-.4-3.1-.9-3.8-1.4-.7-.5-1-1.3-1-2.2 0-1 .4-1.8 1.3-2.4.8-.6 1.9-.9 3.3-.9s2.6.4 3.5 1.1c.9.7 1.4 1.7 1.4 2.8h2.1c0-1.7-.6-3.1-1.9-4.1-1.3-1-3-1.6-5.1-1.6-2 0-3.6.5-4.8 1.5-1.3 1-1.9 2.2-1.9 3.7 0 .9.2 1.8.7 2.4.5.7 1.1 1.2 2.1 1.7.9.5 2.2.9 3.9 1.2 1.7.4 2.9.9 3.8 1.5.8.6 1.3 1.5 1.3 2.5s-.5 1.8-1.4 2.4c-.9.6-2.1 1-3.5 1-1.6 0-2.8-.3-3.8-1s-1.5-1.6-1.6-2.9H272c0 1.6.7 3 2.1 4.1 1.4 1.1 3.2 1.6 5.4 1.6 2.1 0 3.8-.5 5.1-1.4 1.3-1 1.9-2.2 1.9-3.8 0-1-.2-1.8-.7-2.5-.5-.8-1.1-1.4-2.1-1.9z"/><path class="st0" d="M289.7 60.1v-30h5.1v15L302 38h6.9l-9.7 9.7 9.8 12.4h-6.3l-7.1-8.9-.8.7v8.2z"/><path class="st1" d="m305.9 58.6-8.8-11 8.1-8.1h-2.6l-7.3 7.2-2 2.1V31.6h-2.1v27h2.1v-7.3l2.4-2.3 7.7 9.6z"/></svg>