<svg width="440" height="64" viewBox="0 0 440 64" fill="none" xmlns="http://www.w3.org/2000/svg">
    <style>
        .laravel { fill: #1B1B18 } @media (prefers-color-scheme:dark) { .laravel { fill: #fff } }
        .dusk { fill: #868682 } @media (prefers-color-scheme:dark) { .dusk { fill: #A1A09A } }
    </style>
<rect width="64" height="64" fill="#B13BC7"/>
<path d="M28.7056 35.2944C22.434 29.0229 20.9407 19.6901 24.3752 12C22.1353 13.0453 19.9701 14.4638 18.1036 16.3304C9.96547 24.4685 9.96547 37.7583 18.1036 45.8965C26.2417 54.0345 39.5315 54.0345 47.6696 45.8965C49.5362 44.0299 50.9547 41.9393 52 39.6248C44.3845 43.0592 35.0518 41.6407 28.7056 35.2944Z" fill="#FDFDFC"/>
<path class="laravel" d="M103.659 7.625H96V55.5535H118.046V48.5012H103.659V7.625Z"/>
<path class="laravel" d="M145.087 27.9603C144.109 26.3627 142.722 25.1079 140.924 24.1946C139.126 23.2817 137.316 22.8251 135.496 22.8251C133.141 22.8251 130.988 23.2703 129.035 24.1602C127.08 25.0501 125.404 26.2723 124.006 27.8235C122.607 29.3757 121.519 31.1675 120.742 33.1978C119.964 35.2297 119.576 37.3643 119.576 39.6003C119.576 41.8831 119.964 44.0283 120.742 46.0362C121.519 48.0455 122.607 49.8258 124.006 51.377C125.404 52.9292 127.08 54.15 129.035 55.0399C130.988 55.9298 133.141 56.375 135.496 56.375C137.316 56.375 139.126 55.9183 140.924 55.0059C142.722 54.0936 144.11 52.8383 145.087 51.2402V55.5539H152.346V23.6471H145.087V27.9603ZM144.421 43.5027C143.977 44.7355 143.355 45.8081 142.556 46.7209C141.756 47.6342 140.791 48.3644 139.659 48.912C138.526 49.46 137.271 49.7335 135.895 49.7335C134.518 49.7335 133.275 49.46 132.165 48.912C131.054 48.364 130.1 47.6342 129.301 46.7209C128.502 45.8081 127.891 44.7355 127.469 43.5027C127.047 42.2705 126.837 40.9693 126.837 39.6003C126.837 38.2307 127.047 36.9296 127.469 35.6973C127.89 34.465 128.502 33.3929 129.301 32.4796C130.1 31.5672 131.055 30.8361 132.165 30.2886C133.275 29.7406 134.518 29.467 135.895 29.467C137.271 29.467 138.526 29.7406 139.659 30.2886C140.791 30.8366 141.756 31.5672 142.556 32.4796C143.355 33.3929 143.977 34.465 144.421 35.6973C144.864 36.9296 145.087 38.2307 145.087 39.6003C145.087 40.9693 144.864 42.2705 144.421 43.5027Z"/>
<path class="laravel" d="M204.099 27.9603C203.121 26.3627 201.734 25.1079 199.936 24.1946C198.138 23.2817 196.328 22.8251 194.508 22.8251C192.153 22.8251 190.001 23.2703 188.047 24.1602C186.093 25.0501 184.417 26.2723 183.018 27.8235C181.619 29.3757 180.531 31.1675 179.754 33.1978C178.977 35.2297 178.589 37.3643 178.589 39.6003C178.589 41.8831 178.977 44.0283 179.754 46.0362C180.531 48.0455 181.619 49.8258 183.018 51.377C184.417 52.9292 186.092 54.15 188.047 55.0399C190 55.9298 192.153 56.375 194.508 56.375C196.328 56.375 198.138 55.9183 199.936 55.0059C201.734 54.0936 203.122 52.8383 204.099 51.2402V55.5539H211.359V23.6471H204.099V27.9603ZM203.433 43.5027C202.988 44.7355 202.367 45.8081 201.568 46.7209C200.768 47.6342 199.803 48.3644 198.67 48.912C197.538 49.46 196.283 49.7335 194.907 49.7335C193.53 49.7335 192.286 49.46 191.177 48.912C190.066 48.364 189.112 47.6342 188.313 46.7209C187.513 45.8081 186.903 44.7355 186.481 43.5027C186.058 42.2705 185.849 40.9693 185.849 39.6003C185.849 38.2307 186.058 36.9296 186.481 35.6973C186.902 34.465 187.513 33.3929 188.313 32.4796C189.112 31.5672 190.067 30.8361 191.177 30.2886C192.286 29.7406 193.53 29.467 194.907 29.467C196.283 29.467 197.538 29.7406 198.67 30.2886C199.803 30.8366 200.768 31.5672 201.568 32.4796C202.367 33.3929 202.988 34.465 203.433 35.6973C203.876 36.9296 204.099 38.2307 204.099 39.6003C204.099 40.9693 203.876 42.2705 203.433 43.5027Z"/>
<path class="laravel" d="M291 7.625H283.741V55.5535H291V7.625Z"/>
<path class="laravel" d="M158.075 55.5535H165.335V30.9901H177.79V23.6471H158.075V55.5535Z"/>
<path class="laravel" d="M240.465 23.6471L231.34 48.0804L222.216 23.6471H214.862L226.778 55.5535H235.902L247.818 23.6471H240.465Z"/>
<path class="laravel" d="M263.652 22.8265C254.762 22.8265 247.725 30.3369 247.725 39.6007C247.725 49.8416 254.536 56.375 264.582 56.375C270.205 56.375 273.795 54.1648 278.181 49.3514L273.276 45.4504C273.273 45.4542 269.574 50.4469 264.051 50.4469C257.631 50.4469 254.928 45.1262 254.928 42.3733H279.013C280.278 31.8326 273.537 22.8265 263.652 22.8265ZM254.947 36.8278C255.003 36.2138 255.839 28.7541 263.594 28.7541C271.349 28.7541 272.291 36.2128 272.345 36.8278H254.947Z"/>
<path class="dusk" d="M411.686 55.6851V7.68506H416.726V55.6851H411.686ZM416.096 40.8801L432.476 23.5551H438.776L424.916 38.2341L424.412 38.2971L415.718 47.2431L416.096 40.8801ZM426.176 36.5331L439.595 55.6851H433.673L421.577 38.0451L426.176 36.5331Z"/>
<path class="dusk" d="M393.623 56.3151C389.675 56.3151 386.525 55.4121 384.173 53.6061C381.821 51.7581 380.477 49.1541 380.141 45.7941H384.992C385.286 47.8521 386.189 49.4271 387.701 50.5191C389.213 51.611 391.229 52.1571 393.749 52.1571C395.975 52.1571 397.718 51.737 398.978 50.897C400.238 50.057 400.868 48.8601 400.868 47.306C400.868 46.2141 400.511 45.2691 399.797 44.4711C399.083 43.6311 397.655 42.9381 395.513 42.3921L390.347 41.069C387.407 40.313 385.202 39.1581 383.732 37.604C382.262 36.008 381.527 34.1181 381.527 31.9341C381.527 29.1621 382.556 26.9781 384.614 25.382C386.672 23.744 389.465 22.925 392.993 22.925C396.479 22.925 399.314 23.765 401.498 25.445C403.682 27.125 404.921 29.456 405.215 32.438H400.364C400.07 30.716 399.272 29.393 397.97 28.469C396.668 27.545 394.946 27.083 392.804 27.083C390.746 27.083 389.15 27.482 388.016 28.28C386.882 29.036 386.315 30.128 386.315 31.556C386.315 32.648 386.714 33.593 387.512 34.391C388.352 35.189 389.738 35.8611 391.67 36.4071L396.71 37.793C399.692 38.591 401.939 39.8091 403.451 41.4471C404.963 43.0851 405.719 45.0591 405.719 47.3691C405.719 50.1831 404.648 52.3881 402.506 53.9841C400.364 55.5381 397.403 56.3151 393.623 56.3151Z"/>
<path class="dusk" d="M358.207 56.3151C356.107 56.3151 354.238 55.8951 352.6 55.0551C350.962 54.1731 349.681 52.9551 348.757 51.4011C347.833 49.8051 347.371 47.9781 347.371 45.9201V23.5551H352.411V44.5971C352.411 47.0331 352.999 48.8601 354.175 50.0781C355.393 51.2961 357.115 51.9051 359.341 51.9051C361.357 51.9051 363.142 51.4431 364.696 50.5191C366.25 49.5951 367.468 48.3141 368.35 46.6761C369.274 44.9961 369.736 43.0851 369.736 40.9431L370.555 48.5661C369.505 50.9601 367.867 52.8501 365.641 54.2361C363.415 55.6221 360.937 56.3151 358.207 56.3151ZM370.051 55.6851V48.1251H369.736V23.5551H374.776V55.6851H370.051Z"/>
<path class="dusk" d="M306.087 55.6851V51.1491H318.246C322.026 51.1491 325.281 50.3931 328.011 48.8811C330.741 47.3271 332.841 45.1641 334.311 42.3921C335.781 39.6201 336.516 34.7671 336.516 31.1131C336.516 27.5011 335.781 23.3511 334.311 20.6631C332.841 17.9751 330.741 15.8961 328.011 14.4261C325.323 12.9561 322.068 12.2211 318.246 12.2211H306.087V7.68506H318.246C322.992 7.68506 327.129 8.63006 330.657 10.5201C334.185 12.3681 336.915 14.9931 338.847 18.3951C340.821 21.7551 341.808 26.7031 341.808 31.2391C341.808 35.7751 340.821 41.4051 338.847 44.8491C336.873 48.2511 334.122 50.9181 330.594 52.8501C327.108 54.7401 323.013 55.6851 318.309 55.6851H306.087ZM303 55.6851V7.68506H308.166V55.6851H303Z"/>
</svg>
