<svg xmlns="http://www.w3.org/2000/svg" xmlns:xlink="http://www.w3.org/1999/xlink" width="316" height="80" viewBox="0 0 316 80">
    <style>
        .letters { fill: #2E2E2E; }
        @media (prefers-color-scheme: dark) {
            .letters { fill: #ffffff; }
        }
    </style>
    <defs><linearGradient id="b" x1="50%" x2="50%" y1="0%" y2="100%"><stop stop-color="#9B27AD" offset="0%"/><stop stop-color="#F44F4F" offset="100%"/></linearGradient><path id="a" d="M53.234 72.396c-3.106 1.187-6.477 1.838-10 1.838-15.464 0-28-12.536-28-28s12.536-28 28-28c3.523 0 6.894.65 10 1.84-10.525 4.024-18 14.22-18 26.16s7.475 22.136 18 26.162z"/><mask id="c" width="38" height="56" x="0" y="0" fill="#fff"><use xlink:href="#a"/></mask></defs><g fill="none" fill-rule="evenodd"><path fill="#2E2E2E" class="letters" d="M106.273 51.322h11.198v4.236H101V29.964h5.273v21.358zm24.91 4.236c-.236-.457-.406-1.025-.51-1.705-1.232 1.37-2.83 2.057-4.8 2.057-1.863 0-3.407-.54-4.632-1.617-1.223-1.08-1.836-2.438-1.836-4.08 0-2.014.747-3.56 2.242-4.64 1.494-1.077 3.653-1.622 6.477-1.634h2.338v-1.09c0-.88-.225-1.583-.676-2.11-.45-.527-1.163-.79-2.136-.79-.855 0-1.526.204-2.012.614-.487.41-.73.973-.73 1.688h-5.08c0-1.102.34-2.12 1.02-3.06.68-.937 1.64-1.672 2.883-2.205 1.24-.533 2.635-.8 4.182-.8 2.344 0 4.204.59 5.58 1.767 1.378 1.177 2.067 2.833 2.067 4.966v8.244c.01 1.804.262 3.17.754 4.095v.298h-5.132zm-4.203-3.533c.75 0 1.442-.167 2.075-.5.633-.335 1.1-.783 1.406-1.346v-3.27h-1.898c-2.542 0-3.896.88-4.06 2.637l-.018.298c0 .633.223 1.155.668 1.565.446.41 1.055.615 1.828.615zm23.168-10.723c-.69-.093-1.3-.14-1.828-.14-1.922 0-3.18.65-3.78 1.95V55.56h-5.08v-19.02h4.8l.14 2.268c1.02-1.746 2.432-2.62 4.237-2.62.562 0 1.09.077 1.582.23l-.072 4.886zm12.938 14.256c-.234-.457-.404-1.025-.51-1.705-1.23 1.37-2.83 2.057-4.8 2.057-1.862 0-3.406-.54-4.63-1.617-1.225-1.08-1.837-2.438-1.837-4.08 0-2.014.746-3.56 2.24-4.64 1.494-1.077 3.653-1.622 6.477-1.634h2.338v-1.09c0-.88-.225-1.583-.677-2.11-.45-.527-1.163-.79-2.135-.79-.856 0-1.527.204-2.013.614-.486.41-.73.973-.73 1.688h-5.08c0-1.102.34-2.12 1.02-3.06.68-.937 1.64-1.672 2.883-2.205 1.242-.533 2.637-.8 4.183-.8 2.344 0 4.205.59 5.58 1.767 1.378 1.177 2.067 2.833 2.067 4.966v8.244c.012 1.804.264 3.17.756 4.095v.298h-5.134zm-4.2-3.533c.75 0 1.44-.167 2.073-.5.632-.335 1.1-.783 1.405-1.346v-3.27h-1.898c-2.543 0-3.897.88-4.06 2.637l-.018.298c0 .633.22 1.155.667 1.565.445.41 1.054.615 1.828.615zm19.335-2.672l3.534-12.814h5.31l-6.418 19.018h-4.85l-6.417-19.02h5.308l3.533 12.815zm19.6 6.557c-2.79 0-5.06-.856-6.81-2.567-1.753-1.71-2.63-3.99-2.63-6.837v-.493c0-1.91.37-3.618 1.108-5.124.74-1.507 1.784-2.667 3.138-3.48 1.353-.816 2.897-1.223 4.632-1.223 2.6 0 4.65.82 6.143 2.46 1.496 1.642 2.243 3.968 2.243 6.98V47.7H193.53c.165 1.243.66 2.24 1.487 2.99.826.75 1.872 1.124 3.137 1.124 1.957 0 3.487-.71 4.588-2.127l2.496 2.795c-.76 1.078-1.793 1.92-3.093 2.523-1.3.603-2.743.905-4.325.905zm-.58-15.61c-1.008 0-1.825.34-2.452 1.02-.627.68-1.028 1.652-1.204 2.918h7.066v-.404c-.023-1.125-.328-1.995-.914-2.61-.586-.616-1.418-.924-2.496-.924zm16.647 15.258h-5.098v-27h5.097v27zm14.22 0V29.964h7.155c2.097 0 3.978.478 5.642 1.433 1.664.955 2.962 2.323 3.894 4.105.93 1.78 1.397 3.808 1.397 6.082v2.355c0 2.284-.463 4.312-1.388 6.08-.926 1.77-2.23 3.136-3.91 4.097-1.683.96-3.614 1.44-5.793 1.44h-6.997zm2.163-23.748v21.92h4.85c2.696 0 4.86-.893 6.487-2.68 1.63-1.788 2.444-4.205 2.444-7.252v-2.25c0-2.94-.802-5.296-2.407-7.066-1.606-1.77-3.72-2.66-6.346-2.672h-5.027zm33.152 21.34c-1.266 1.84-3.287 2.76-6.065 2.76-2.027 0-3.568-.59-4.623-1.767-1.054-1.178-1.593-2.92-1.617-5.23V36.54h2.092v12.11c0 3.62 1.464 5.432 4.394 5.432 3.046 0 4.974-1.26 5.783-3.78V36.54h2.11v19.018h-2.04l-.035-2.408zm18.932-2.426c0-1.043-.42-1.88-1.257-2.513-.838-.632-2.1-1.127-3.788-1.485-1.69-.357-2.998-.767-3.93-1.23-.932-.463-1.623-1.03-2.074-1.697-.452-.668-.677-1.476-.677-2.425 0-1.5.626-2.74 1.88-3.718 1.254-.98 2.86-1.468 4.816-1.468 2.12 0 3.823.525 5.107 1.573 1.283 1.05 1.924 2.417 1.924 4.105h-2.11c0-1.113-.465-2.04-1.396-2.777-.93-.74-2.106-1.108-3.524-1.108-1.383 0-2.493.308-3.33.923-.84.615-1.258 1.415-1.258 2.4 0 .95.35 1.684 1.046 2.205.697.522 1.97 1 3.815 1.433 1.844.435 3.227.898 4.147 1.39.92.492 1.603 1.084 2.048 1.775.445.692.668 1.53.668 2.514 0 1.604-.648 2.887-1.942 3.848-1.294.96-2.985 1.442-5.07 1.442-2.216 0-4.012-.536-5.388-1.61-1.377-1.07-2.066-2.427-2.066-4.068h2.11c.082 1.23.6 2.19 1.555 2.874.956.686 2.22 1.028 3.79 1.028 1.464 0 2.648-.322 3.55-.966.902-.645 1.354-1.46 1.354-2.444zm11.355-4.746l-2.41 2.32v7.26h-2.11v-27h2.11v17.28l1.987-2.145 7.277-7.154h2.655l-8.07 8.014 8.772 11.004h-2.514l-7.7-9.58z"/><path fill="url(#b)" d="M41 80C18.91 80 1 62.09 1 40S18.91 0 41 0s40 17.91 40 40-17.91 40-40 40z"/><use stroke="#FFF" stroke-width="8" mask="url(#c)" transform="rotate(-45 34.234 46.234)" xlink:href="#a"/></g>
</svg>
