<svg viewBox="0 0 309 86" xmlns="http://www.w3.org/2000/svg">
    <style>
        #dusk { fill: #2E2E2E } @media (prefers-color-scheme:dark) { #dusk { fill: #fff } }
    </style>
    <path d="M43 83C20.9 83 3 65.1 3 43C3 20.9 20.9 3 43 3C65.1 3 83 20.9 83 43C83 65.1 65.1 83 43 83Z" fill="url(#paint0_linear_10_9)"/>
    <path d="M36.9 48.5C28.5 40.1 26.5 27.6 31.1 17.3C28.1 18.7 25.2 20.6 22.7 23.1C11.8 34 11.8 51.8001 22.7 62.7001C33.6 73.6 51.4 73.6 62.3 62.7001C64.8 60.2001 66.7 57.4 68.1 54.3C57.9 58.9 45.4 57 36.9 48.5ZM42.6 66.9001C36.2 66.9001 30.2 64.4001 25.6 59.9001C16.5 50.8001 16.3 36.2 24.8 26.8C24.3 35.8 27.5 44.8001 34.1 51.4001C40.1 57.4001 48.2 60.8 56.7 60.8C57.4 60.8 58 60.8001 58.7 60.7001C54.3 64.7001 48.6 66.9001 42.6 66.9001Z" fill="white"/>
    <path id="dusk" d="M108.3 54.3H119.5V58.5H103V33H108.3V54.3ZM133.2 58.6C133 58.1 132.8 57.6 132.7 56.9C131.5 58.3 129.9 59 127.9 59C126 59 124.5 58.5 123.3 57.4C122.1 56.3 121.5 55 121.5 53.3C121.5 51.3 122.2 49.7 123.7 48.7C125.2 47.6 127.4 47.1 130.2 47.1H132.5V46C132.5 45.1 132.3 44.4 131.8 43.9C131.4 43.4 130.6 43.1 129.7 43.1C128.8 43.1 128.2 43.3 127.7 43.7C127.2 44.1 127 44.7 127 45.4H121.9C121.9 44.3 122.2 43.3 122.9 42.3C123.6 41.4 124.5 40.6 125.8 40.1C127 39.6 128.4 39.3 130 39.3C132.3 39.3 134.2 39.9 135.6 41.1C137 42.3 137.7 43.9 137.7 46.1V54.3C137.7 56.1 138 57.5 138.5 58.4V58.7L133.2 58.6ZM129 55C129.8 55 130.4 54.8 131.1 54.5C131.7 54.2 132.2 53.7 132.5 53.2V49.9H130.6C128.1 49.9 126.7 50.8 126.5 52.5V52.8C126.5 53.4 126.7 54 127.2 54.4C127.6 54.8 128.2 55 129 55ZM152.1 44.3C151.4 44.2 150.8 44.2 150.3 44.2C148.4 44.2 147.1 44.9 146.5 46.2V58.6H141.4V39.6H146.2L146.3 41.9C147.3 40.2 148.7 39.3 150.5 39.3C151.1 39.3 151.6 39.4 152.1 39.5V44.3ZM165.1 58.6C164.9 58.1 164.7 57.6 164.6 56.9C163.4 58.3 161.8 59 159.8 59C157.9 59 156.4 58.5 155.2 57.4C154 56.3 153.4 55 153.4 53.3C153.4 51.3 154.1 49.7 155.6 48.7C157.1 47.6 159.3 47.1 162.1 47.1H164.4V46C164.4 45.1 164.2 44.4 163.7 43.9C163.3 43.4 162.5 43.1 161.6 43.1C160.7 43.1 160.1 43.3 159.6 43.7C159.1 44.1 158.9 44.7 158.9 45.4H153.8C153.8 44.3 154.1 43.3 154.8 42.3C155.5 41.4 156.4 40.6 157.7 40.1C158.9 39.6 160.3 39.3 161.9 39.3C164.2 39.3 166.1 39.9 167.5 41.1C168.9 42.3 169.6 43.9 169.6 46.1V54.3C169.6 56.1 169.9 57.5 170.4 58.4V58.7L165.1 58.6ZM160.9 55C161.7 55 162.3 54.8 163 54.5C163.6 54.2 164.1 53.7 164.4 53.2V49.9H162.5C160 49.9 158.6 50.8 158.4 52.5V52.8C158.4 53.4 158.6 54 159.1 54.4C159.5 54.8 160.1 55 160.9 55ZM180.2 52.4L183.7 39.6H189L182.6 58.6H177.7L171.3 39.6H176.6L180.2 52.4ZM199.8 58.9C197 58.9 194.7 58 193 56.3C191.2 54.6 190.4 52.3 190.4 49.5V49C190.4 47.1 190.8 45.4 191.5 43.9C192.2 42.4 193.3 41.2 194.6 40.4C196 39.6 197.5 39.2 199.2 39.2C201.8 39.2 203.8 40 205.3 41.7C206.8 43.3 207.5 45.7 207.5 48.7V50.8H195.4C195.6 52 196.1 53 196.9 53.8C197.7 54.6 198.8 54.9 200 54.9C202 54.9 203.5 54.2 204.6 52.8L207.1 55.6C206.3 56.7 205.3 57.5 204 58.1C202.7 58.7 201.4 58.9 199.8 58.9ZM199.2 43.3C198.2 43.3 197.4 43.6 196.7 44.3C196 45 195.7 46 195.5 47.2H202.6V46.8C202.6 45.7 202.3 44.8 201.7 44.2C201.2 43.6 200.3 43.3 199.2 43.3ZM215.9 58.6H210.8V31.6H215.9V58.6Z"/>
    <path id="dusk" d="M242.9 34.4C241.2 33.4 239.4 33 237.3 33H230.1V58.6H237.1C239.3 58.6 241.2 58.1 242.9 57.2C244.6 56.2 245.9 54.9 246.8 53.1C247.7 51.3 248.2 49.3 248.2 47V44.6C248.2 42.3 247.7 40.3 246.8 38.5C245.9 36.7 244.6 35.4 242.9 34.4ZM246.1 46.8C246.1 49.8 245.3 52.3 243.7 54.1C242.1 55.9 239.9 56.8 237.2 56.8H232.3V34.8H237.3C239.9 34.8 242 35.7 243.6 37.5C245.2 39.3 246 41.6 246 44.6V46.8H246.1Z"/>
    <path id="dusk" d="M265.4 53.3C264.6 55.8 262.7 57.1 259.6 57.1C256.7 57.1 255.2 55.3 255.2 51.7V39.5H253.1V51.9C253.1 54.2 253.7 56 254.7 57.1C255.8 58.3 257.3 58.9 259.3 58.9C262.1 58.9 264.1 58 265.4 56.1V58.5H267.4V39.5H265.3V53.3H265.4Z"/>
    <path id="dusk" d="M283.7 49.3C282.8 48.8 281.4 48.3 279.6 47.9C277.8 47.5 276.5 47 275.8 46.5C275.1 46 274.8 45.2 274.8 44.3C274.8 43.3 275.2 42.5 276.1 41.9C276.9 41.3 278 41 279.4 41C280.8 41 282 41.4 282.9 42.1C283.8 42.8 284.3 43.8 284.3 44.9H286.4C286.4 43.2 285.8 41.8 284.5 40.8C283.2 39.8 281.5 39.2 279.4 39.2C277.4 39.2 275.8 39.7 274.6 40.7C273.3 41.7 272.7 42.9 272.7 44.4C272.7 45.3 272.9 46.2 273.4 46.8C273.9 47.5 274.5 48 275.5 48.5C276.4 49 277.7 49.4 279.4 49.7C281.1 50.1 282.3 50.6 283.2 51.2C284 51.8 284.5 52.7 284.5 53.7C284.5 54.7 284 55.5 283.1 56.1C282.2 56.7 281 57.1 279.6 57.1C278 57.1 276.8 56.8 275.8 56.1C274.8 55.4 274.3 54.5 274.2 53.2H272C272 54.8 272.7 56.2 274.1 57.3C275.5 58.4 277.3 58.9 279.5 58.9C281.6 58.9 283.3 58.4 284.6 57.5C285.9 56.5 286.5 55.3 286.5 53.7C286.5 52.7 286.3 51.9 285.8 51.2C285.3 50.4 284.7 49.8 283.7 49.3Z"/>
    <path id="dusk" d="M305.9 58.6L297.1 47.6L305.2 39.5H302.6L295.3 46.7L293.3 48.8V31.6H291.2V58.6H293.3V51.3L295.7 49L303.4 58.6H305.9Z"/>
    <defs>
        <linearGradient id="paint0_linear_10_9" x1="43" y1="3.04" x2="43" y2="83.04" gradientUnits="userSpaceOnUse">
            <stop stop-color="#9B27AD"/>
            <stop offset="1" stop-color="#F44F4F"/>
        </linearGradient>
    </defs>
</svg>
