<?xml version="1.0" encoding="utf-8"?>
<!-- Generator: Adobe Illustrator 21.0.2, SVG Export Plug-In . SVG Version: 6.00 Build 0)  -->
<svg version="1.1" id="Layer_1" xmlns="http://www.w3.org/2000/svg" xmlns:xlink="http://www.w3.org/1999/xlink" x="0px" y="0px"
	 viewBox="0 0 110.4 75.6" style="enable-background:new 0 0 110.4 75.6;" xml:space="preserve">
<style type="text/css">
	.st0{fill:#FB503B;}
</style>
<path class="st0" d="M96.9,35.9c-0.6-0.6-8.3-10.3-9.6-11.9c-1.4-1.6-2-1.3-2.9-1.2s-10.6,1.8-11.7,1.9c-1.1,0.2-1.8,0.6-1.1,1.6
	c0.6,0.9,7,9.9,8.4,12l-25.5,6.1L34.3,10.5c-0.8-1.2-1-1.6-2.8-1.5c-1.8,0.1-15.9,1.3-16.9,1.3c-1,0.1-2.1,0.5-1.1,2.9
	S30.5,50,30.9,51s1.6,2.6,4.3,2c2.8-0.7,12.4-3.2,17.7-4.6c2.8,5,8.4,15.2,9.5,16.7c1.4,2,2.4,1.6,4.5,1c1.7-0.5,26.2-9.3,27.3-9.8
	s1.8-0.8,1-1.9c-0.6-0.8-7-9.5-10.4-14c2.3-0.6,10.6-2.8,11.5-3.1C97.3,37,97.5,36.5,96.9,35.9z M50.6,45.4
	c-0.3,0.1-14.6,3.5-15.3,3.7c-0.8,0.2-0.8,0.1-0.8-0.2c-0.2-0.3-17-35.1-17.3-35.5c-0.2-0.4-0.2-0.8,0-0.8c0.2,0,13.5-1.2,13.9-1.2
	c0.5,0,0.4,0.1,0.6,0.4c0,0,18.7,32.3,19,32.8C51.1,45.1,50.9,45.3,50.6,45.4z M90.8,52.9c0.2,0.4,0.5,0.6-0.3,0.8
	c-0.7,0.3-24.1,8.2-24.6,8.4c-0.5,0.2-0.8,0.3-1.4-0.6c-0.6-0.9-8.2-14-8.2-14L81.2,41c0.6-0.2,0.8-0.3,1.2,0.3
	C82.8,42,90.6,52.6,90.8,52.9z M92.4,35.3c-0.6,0.1-9.7,2.4-9.7,2.4l-7.5-10.2c-0.2-0.3-0.4-0.6,0.1-0.7s9-1.6,9.4-1.7
	s0.7-0.2,1.2,0.5c0.5,0.6,6.9,8.8,7.2,9.1C93.4,35,93,35.2,92.4,35.3z"/>
</svg>
